<svg width="45" height="34" viewBox="0 0 45 34" fill="none" xmlns="http://www.w3.org/2000/svg">
<path d="M44.9998 16.9995C45.0092 20.5717 43.8503 24.049 41.6998 26.9014C41.5814 27.059 41.4331 27.1917 41.2633 27.292C41.0936 27.3922 40.9058 27.4581 40.7106 27.4858C40.5155 27.5134 40.3167 27.5024 40.1258 27.4533C39.9349 27.4042 39.7555 27.3179 39.5979 27.1995C39.4404 27.0811 39.3076 26.9328 39.2074 26.763C39.1071 26.5933 39.0413 26.4055 39.0136 26.2103C38.9859 26.0151 38.9969 25.8164 39.046 25.6255C39.0951 25.4346 39.1814 25.2552 39.2998 25.0976C41.0601 22.7656 42.0084 19.9213 41.9998 16.9995C41.9998 13.4191 40.5775 9.9853 38.0458 7.45356C35.514 4.92182 32.0802 3.4995 28.4998 3.4995C24.9194 3.4995 21.4856 4.92182 18.9539 7.45356C16.4221 9.9853 14.9998 13.4191 14.9998 16.9995C14.9998 17.3973 14.8418 17.7789 14.5605 18.0602C14.2792 18.3415 13.8977 18.4995 13.4998 18.4995C13.102 18.4995 12.7205 18.3415 12.4392 18.0602C12.1579 17.7789 11.9998 17.3973 11.9998 16.9995C11.9991 15.4858 12.2067 13.9791 12.6167 12.522C12.4123 12.4995 12.2061 12.4995 11.9998 12.4995C9.61288 12.4995 7.32369 13.4477 5.63587 15.1355C3.94804 16.8234 2.99983 19.1126 2.99983 21.4995C2.99983 23.8865 3.94804 26.1756 5.63587 27.8635C7.32369 29.5513 9.61288 30.4995 11.9998 30.4995H16.4998C16.8976 30.4995 17.2792 30.6575 17.5605 30.9388C17.8418 31.2201 17.9998 31.6017 17.9998 31.9995C17.9998 32.3973 17.8418 32.7789 17.5605 33.0602C17.2792 33.3415 16.8976 33.4995 16.4998 33.4995H11.9998C10.3502 33.4999 8.71812 33.1601 7.20566 32.5014C5.6932 31.8427 4.33279 30.8793 3.2094 29.6712C2.08602 28.4632 1.22378 27.0364 0.676548 25.4802C0.129314 23.9239 -0.091162 22.2715 0.0288883 20.6262C0.148939 18.9809 0.606937 17.3781 1.37428 15.9177C2.14162 14.4574 3.20182 13.1709 4.48867 12.1387C5.77552 11.1065 7.26138 10.3508 8.85343 9.91859C10.4455 9.48643 12.1096 9.38717 13.7417 9.627C15.4037 6.30292 18.1392 3.63727 21.5052 2.06181C24.8711 0.486358 28.6704 0.0933736 32.2876 0.946514C35.9047 1.79965 39.128 3.84895 41.4352 6.76247C43.7424 9.67599 44.9984 13.2831 44.9998 16.9995ZM28.0611 15.9383C27.9218 15.7988 27.7563 15.6882 27.5742 15.6127C27.3921 15.5372 27.1969 15.4983 26.9998 15.4983C26.8027 15.4983 26.6075 15.5372 26.4254 15.6127C26.2433 15.6882 26.0779 15.7988 25.9386 15.9383L19.9386 21.9383C19.7992 22.0776 19.6887 22.2431 19.6132 22.4252C19.5378 22.6072 19.499 22.8024 19.499 22.9995C19.499 23.1966 19.5378 23.3918 19.6132 23.5738C19.6887 23.7559 19.7992 23.9214 19.9386 24.0608C20.22 24.3422 20.6018 24.5003 20.9998 24.5003C21.1969 24.5003 21.3921 24.4615 21.5742 24.3861C21.7563 24.3107 21.9217 24.2001 22.0611 24.0608L25.4998 20.6201V31.9995C25.4998 32.3973 25.6579 32.7789 25.9392 33.0602C26.2205 33.3415 26.602 33.4995 26.9998 33.4995C27.3977 33.4995 27.7792 33.3415 28.0605 33.0602C28.3418 32.7789 28.4998 32.3973 28.4998 31.9995V20.6201L31.9386 24.0608C32.0779 24.2001 32.2434 24.3107 32.4255 24.3861C32.6076 24.4615 32.8027 24.5003 32.9998 24.5003C33.1969 24.5003 33.3921 24.4615 33.5742 24.3861C33.7563 24.3107 33.9217 24.2001 34.0611 24.0608C34.2004 23.9214 34.311 23.7559 34.3864 23.5738C34.4618 23.3918 34.5007 23.1966 34.5007 22.9995C34.5007 22.8024 34.4618 22.6072 34.3864 22.4252C34.311 22.2431 34.2004 22.0776 34.0611 21.9383L28.0611 15.9383Z" fill="#B95ED4"/>
</svg>
